<svg width="10" height="10" viewBox="0 0 10 10" fill="none" xmlns="http://www.w3.org/2000/svg">
<path d="M2.30665 9.11919C2.37405 9.15425 2.44973 9.17029 2.52556 9.16559C2.60139 9.16089 2.6745 9.13563 2.73706 9.09252L8.15373 5.34252C8.20908 5.30418 8.25431 5.25299 8.28555 5.19334C8.31679 5.13369 8.33311 5.06736 8.33311 5.00002C8.33311 4.93269 8.31679 4.86636 8.28555 4.80671C8.25431 4.74706 8.20908 4.69587 8.15373 4.65752L2.73706 0.907522C2.67455 0.864269 2.6014 0.838941 2.52553 0.83428C2.44965 0.829619 2.37395 0.845803 2.30662 0.88108C2.23928 0.916357 2.18288 0.969382 2.14352 1.03441C2.10416 1.09945 2.08334 1.17401 2.08331 1.25002V8.75002C2.0833 8.82608 2.10411 8.90069 2.14347 8.96577C2.18284 9.03084 2.23927 9.0839 2.30665 9.11919Z" fill="#195557"/>
</svg>
