<svg width="37" height="34" viewBox="0 0 37 34" fill="none" xmlns="http://www.w3.org/2000/svg">
<path d="M12.6435 33.7719C14.1216 33.7719 15.3198 32.6461 15.3198 31.2574C15.3198 29.8686 14.1216 28.7429 12.6435 28.7429C11.1654 28.7429 9.96716 29.8686 9.96716 31.2574C9.96716 32.6461 11.1654 33.7719 12.6435 33.7719Z" fill="#195557"/>
<path d="M28.9039 33.7719C30.382 33.7719 31.5802 32.6461 31.5802 31.2574C31.5802 29.8686 30.382 28.7429 28.9039 28.7429C27.4258 28.7429 26.2275 29.8686 26.2275 31.2574C26.2275 32.6461 27.4258 33.7719 28.9039 33.7719Z" fill="#195557"/>
<path d="M36.1359 4.01107C36.0253 3.88287 35.8857 3.7793 35.7274 3.7078C35.569 3.63631 35.3957 3.59866 35.22 3.59757H10.4548L11.228 5.8327H33.6618L30.4859 19.2435H12.6435L7.2075 3.07231C7.1487 2.90072 7.04659 2.74504 6.90989 2.61854C6.77319 2.49205 6.60594 2.39851 6.42243 2.34589L1.54551 0.937757C1.39555 0.894462 1.23799 0.879342 1.08181 0.89326C0.925634 0.907177 0.773903 0.94986 0.635282 1.01887C0.355326 1.15824 0.145765 1.3964 0.0527001 1.68094C-0.0403644 1.96548 -0.00930887 2.2731 0.139035 2.53613C0.287378 2.79916 0.540859 2.99605 0.843713 3.08349L5.11399 4.31281L10.5738 20.5175L8.62299 22.0151L8.46836 22.1604C7.98582 22.6828 7.71232 23.347 7.69495 24.0385C7.67758 24.7301 7.91743 25.4057 8.3732 25.9489C8.6974 26.3193 9.10938 26.6133 9.57618 26.8074C10.043 27.0015 10.5516 27.0902 11.0615 27.0665H30.9141C31.2295 27.0665 31.5321 26.9487 31.7552 26.7392C31.9782 26.5296 32.1036 26.2453 32.1036 25.9489C32.1036 25.6525 31.9782 25.3683 31.7552 25.1587C31.5321 24.9491 31.2295 24.8314 30.9141 24.8314H10.8711C10.7342 24.827 10.6007 24.7894 10.4837 24.7224C10.3666 24.6554 10.27 24.5612 10.203 24.4489C10.136 24.3365 10.101 24.2098 10.1014 24.0811C10.1017 23.9523 10.1374 23.8258 10.205 23.7138L13.0717 21.4786H31.4374C31.7124 21.485 31.9812 21.4016 32.1981 21.2426C32.415 21.0837 32.5665 20.859 32.6269 20.6069L36.3976 4.961C36.4338 4.79439 36.429 4.62222 36.3837 4.45761C36.3383 4.29299 36.2536 4.14027 36.1359 4.01107Z" fill="#195557"/>
</svg>
