<svg width="45" height="38" viewBox="0 0 45 38" fill="none" xmlns="http://www.w3.org/2000/svg">
<path d="M12.6435 37.7719C14.1216 37.7719 15.3198 36.6461 15.3198 35.2574C15.3198 33.8686 14.1216 32.7429 12.6435 32.7429C11.1654 32.7429 9.96716 33.8686 9.96716 35.2574C9.96716 36.6461 11.1654 37.7719 12.6435 37.7719Z" fill="#195557"/>
<path d="M28.9039 37.7719C30.382 37.7719 31.5802 36.6461 31.5802 35.2574C31.5802 33.8686 30.382 32.7429 28.9039 32.7429C27.4258 32.7429 26.2275 33.8686 26.2275 35.2574C26.2275 36.6461 27.4258 37.7719 28.9039 37.7719Z" fill="#195557"/>
<path d="M36.1359 8.01107C36.0253 7.88287 35.8857 7.7793 35.7274 7.7078C35.569 7.63631 35.3957 7.59866 35.22 7.59757H10.4548L11.228 9.8327H33.6618L30.4859 23.2435H12.6435L7.2075 7.07231C7.1487 6.90072 7.04659 6.74504 6.90989 6.61854C6.77319 6.49205 6.60594 6.39851 6.42243 6.34589L1.54551 4.93776C1.39555 4.89446 1.23799 4.87934 1.08181 4.89326C0.925634 4.90718 0.773903 4.94986 0.635282 5.01887C0.355326 5.15824 0.145765 5.3964 0.0527001 5.68094C-0.0403644 5.96548 -0.00930887 6.2731 0.139035 6.53613C0.287378 6.79916 0.540859 6.99605 0.843713 7.08349L5.11399 8.31281L10.5738 24.5175L8.62299 26.0151L8.46836 26.1604C7.98582 26.6828 7.71232 27.347 7.69495 28.0385C7.67758 28.7301 7.91743 29.4057 8.3732 29.9489C8.6974 30.3193 9.10938 30.6133 9.57618 30.8074C10.043 31.0015 10.5516 31.0902 11.0615 31.0665H30.9141C31.2295 31.0665 31.5321 30.9487 31.7552 30.7392C31.9782 30.5296 32.1036 30.2453 32.1036 29.9489C32.1036 29.6525 31.9782 29.3683 31.7552 29.1587C31.5321 28.9491 31.2295 28.8314 30.9141 28.8314H10.8711C10.7342 28.827 10.6007 28.7894 10.4837 28.7224C10.3666 28.6554 10.27 28.5612 10.203 28.4489C10.136 28.3365 10.101 28.2098 10.1014 28.0811C10.1017 27.9523 10.1374 27.8258 10.205 27.7138L13.0717 25.4786H31.4374C31.7124 25.485 31.9812 25.4016 32.1981 25.2426C32.415 25.0837 32.5665 24.859 32.6269 24.6069L36.3976 8.961C36.4338 8.79439 36.429 8.62222 36.3837 8.45761C36.3383 8.29299 36.2536 8.14027 36.1359 8.01107Z" fill="#195557"/>
<circle cx="35.5" cy="9.5" r="9.5" fill="#FFEDCD"/>
<path d="M37.68 11.79V13H33.66V11.79H35.04V7.17C34.9867 7.25 34.8967 7.34 34.77 7.44C34.65 7.53333 34.51 7.62667 34.35 7.72C34.1967 7.80667 34.0367 7.88 33.87 7.94C33.71 8 33.5633 8.03 33.43 8.03V6.79C33.61 6.79 33.7933 6.74333 33.98 6.65C34.1667 6.55 34.3367 6.44333 34.49 6.33C34.65 6.21 34.78 6.1 34.88 6C34.98 5.9 35.0333 5.84333 35.04 5.83H36.41V11.79H37.68Z" fill="black"/>
</svg>
