<svg width="452" height="103" viewBox="0 0 452 103" fill="none" xmlns="http://www.w3.org/2000/svg">
<g filter="url(#filter0_d)">
<path d="M59.52 73.92C59.52 73.76 59.68 73.68 60 73.68C60.24 73.68 60.44 73.76 60.6 73.92C60.84 74 60.96 74.08 60.96 74.16C60.16 80.4 59.76 86.08 59.76 91.2C59.76 91.84 59.64 92.32 59.4 92.64C59.16 92.88 58.68 93 57.96 93H4.92C4.68 93 4.56 92.76 4.56 92.28C4.56 91.8 4.68 91.56 4.92 91.56C7.48 91.56 9.32 91.36 10.44 90.96C11.64 90.56 12.44 89.8 12.84 88.68C13.24 87.48 13.44 85.68 13.44 83.28V27.72C13.44 25.32 13.24 23.56 12.84 22.44C12.44 21.32 11.64 20.56 10.44 20.16C9.24 19.68 7.4 19.44 4.92 19.44C4.68 19.44 4.56 19.2 4.56 18.72C4.56 18.24 4.68 18 4.92 18H55.8C56.6 18 57 18.36 57 19.08L57.24 35.04C57.24 35.2 57 35.32 56.52 35.4C56.12 35.48 55.88 35.4 55.8 35.16C54.52 30.52 52.36 27.08 49.32 24.84C46.28 22.6 42.28 21.48 37.32 21.48H33.72C31.32 21.48 29.56 22 28.44 23.04C27.32 24.08 26.76 25.68 26.76 27.84V52.32H36.72C41.36 52.32 44.92 51.52 47.4 49.92C49.88 48.32 51.12 46.08 51.12 43.2C51.12 42.96 51.32 42.84 51.72 42.84C52.2 42.84 52.44 42.96 52.44 43.2L52.32 54L52.44 59.76C52.6 62.48 52.68 64.64 52.68 66.24C52.68 66.4 52.44 66.48 51.96 66.48C51.48 66.48 51.24 66.4 51.24 66.24C51.24 62.96 49.96 60.4 47.4 58.56C44.92 56.64 41.32 55.68 36.6 55.68H26.76V82.8C26.76 85.12 27.2 86.84 28.08 87.96C28.96 89.08 30.36 89.64 32.28 89.64H36.24C42.48 89.64 47.48 88.36 51.24 85.8C55 83.24 57.76 79.28 59.52 73.92Z" fill="#195557"/>
<path d="M188.971 91.56C189.211 91.56 189.331 91.8 189.331 92.28C189.331 92.76 189.211 93 188.971 93H170.491C169.531 93 168.651 92.68 167.851 92.04C167.131 91.4 165.771 89.72 163.771 87C161.851 84.2 158.771 79.48 154.531 72.84C151.091 67.4 148.411 63.52 146.491 61.2C144.571 58.88 142.691 57.32 140.851 56.52C139.011 55.64 136.571 55.2 133.531 55.2V83.28C133.531 85.68 133.731 87.48 134.131 88.68C134.611 89.8 135.491 90.56 136.771 90.96C138.051 91.36 140.091 91.56 142.891 91.56C143.051 91.56 143.131 91.8 143.131 92.28C143.131 92.76 143.051 93 142.891 93C139.931 93 137.611 92.96 135.931 92.88L126.331 92.76L117.571 92.88C116.051 92.96 113.891 93 111.091 93C110.931 93 110.851 92.76 110.851 92.28C110.851 91.8 110.931 91.56 111.091 91.56C113.891 91.56 115.931 91.36 117.211 90.96C118.491 90.56 119.371 89.8 119.851 88.68C120.331 87.48 120.571 85.68 120.571 83.28V55.2C117.531 55.2 115.091 55.64 113.251 56.52C111.411 57.32 109.531 58.88 107.611 61.2C105.691 63.52 103.011 67.4 99.5709 72.84C95.3309 79.48 92.2109 84.2 90.2109 87C88.2909 89.72 86.9309 91.4 86.1309 92.04C85.4109 92.68 84.5709 93 83.6109 93H65.1309C64.8909 93 64.7709 92.76 64.7709 92.28C64.7709 91.8 64.8909 91.56 65.1309 91.56C67.2909 91.48 69.2909 90.76 71.1309 89.4C72.9709 88.04 74.7709 86.24 76.5309 84C78.2909 81.68 80.8509 78.08 84.2109 73.2L86.0109 70.44C88.9709 66.04 91.4509 62.68 93.4509 60.36C95.5309 58.04 97.5709 56.36 99.5709 55.32C101.571 54.28 103.971 53.6 106.771 53.28L90.2109 32.88C86.6109 28.48 82.8509 25.16 78.9309 22.92C75.0909 20.6 71.1709 19.44 67.1709 19.44C67.0109 19.44 66.9309 19.2 66.9309 18.72C66.9309 18.24 67.0109 18 67.1709 18L72.3309 18.12C75.6909 18.28 78.9309 18.36 82.0509 18.36C84.4509 18.36 87.7309 18.28 91.8909 18.12L99.8109 18C99.9709 18 100.051 18.24 100.051 18.72C100.051 19.2 99.9709 19.44 99.8109 19.44C97.4909 19.44 95.7309 19.96 94.5309 21C93.4109 21.96 92.8509 23.32 92.8509 25.08C92.8509 28.2 94.6509 32.32 98.2509 37.44L109.531 53.04H112.411C115.691 53.04 118.411 53.08 120.571 53.16V27.72C120.571 25.32 120.331 23.56 119.851 22.44C119.371 21.32 118.491 20.56 117.211 20.16C115.931 19.68 113.931 19.44 111.211 19.44C111.051 19.44 110.971 19.2 110.971 18.72C110.971 18.24 111.051 18 111.211 18L117.811 18.12C121.331 18.28 124.171 18.36 126.331 18.36C128.811 18.36 132.051 18.28 136.051 18.12L142.891 18C143.051 18 143.131 18.24 143.131 18.72C143.131 19.2 143.051 19.44 142.891 19.44C140.171 19.44 138.171 19.68 136.891 20.16C135.611 20.64 134.731 21.48 134.251 22.68C133.771 23.8 133.531 25.56 133.531 27.96V53.16C135.611 53.08 138.331 53.04 141.691 53.04H144.571L155.491 38.04C159.251 32.84 161.131 28.52 161.131 25.08C161.131 23.32 160.571 21.96 159.451 21C158.331 19.96 156.651 19.44 154.411 19.44C154.171 19.44 154.051 19.2 154.051 18.72C154.051 18.24 154.171 18 154.411 18L162.211 18.12C166.371 18.28 169.651 18.36 172.051 18.36C175.171 18.36 178.411 18.28 181.771 18.12L186.931 18C187.091 18 187.171 18.24 187.171 18.72C187.171 19.2 187.091 19.44 186.931 19.44C182.931 19.44 178.971 20.6 175.051 22.92C171.211 25.16 167.491 28.48 163.891 32.88L147.331 53.28C150.211 53.6 152.611 54.28 154.531 55.32C156.531 56.36 158.531 58.04 160.531 60.36C162.531 62.6 165.051 65.96 168.091 70.44L169.891 73.2C173.251 78.08 175.811 81.68 177.571 84C179.331 86.24 181.131 88.04 182.971 89.4C184.811 90.76 186.811 91.48 188.971 91.56Z" fill="#195557"/>
<path d="M275.812 91.56C276.052 91.56 276.172 91.8 276.172 92.28C276.172 92.76 276.052 93 275.812 93C273.012 93 270.772 92.96 269.092 92.88L259.852 92.76L249.052 92.88C247.612 92.96 245.652 93 243.172 93C242.932 93 242.812 92.76 242.812 92.28C242.812 91.8 242.932 91.56 243.172 91.56C246.132 91.56 248.292 91.36 249.652 90.96C251.012 90.56 251.932 89.8 252.412 88.68C252.892 87.56 253.132 85.76 253.132 83.28V34.2L205.132 94.32C204.892 94.56 204.292 94.68 203.332 94.68C201.812 94.68 201.052 94.4 201.052 93.84V27.72C201.052 25.32 200.812 23.56 200.332 22.44C199.852 21.32 198.972 20.56 197.692 20.16C196.412 19.68 194.412 19.44 191.692 19.44C191.452 19.44 191.332 19.2 191.332 18.72C191.332 18.24 191.452 18 191.692 18L198.412 18.12C202.412 18.28 205.492 18.36 207.652 18.36C210.852 18.36 214.452 18.28 218.452 18.12L224.332 18C224.572 18 224.692 18.24 224.692 18.72C224.692 19.2 224.572 19.44 224.332 19.44C221.372 19.44 219.212 19.68 217.852 20.16C216.492 20.56 215.572 21.32 215.092 22.44C214.612 23.56 214.372 25.32 214.372 27.72V77.28L262.372 17.16C262.612 16.92 263.212 16.8 264.172 16.8C264.732 16.8 265.252 16.88 265.732 17.04C266.212 17.2 266.452 17.4 266.452 17.64V83.28C266.452 85.68 266.692 87.48 267.172 88.68C267.652 89.8 268.532 90.56 269.812 90.96C271.092 91.36 273.092 91.56 275.812 91.56Z" fill="#195557"/>
<path d="M360.729 91.56C360.969 91.56 361.089 91.8 361.089 92.28C361.089 92.76 360.969 93 360.729 93H342.249C341.209 93 340.249 92.68 339.369 92.04C338.569 91.4 337.129 89.76 335.049 87.12C332.969 84.4 329.569 79.64 324.849 72.84L321.609 68.28C318.809 64.2 316.729 61.36 315.369 59.76C314.009 58.08 312.569 56.92 311.049 56.28C309.609 55.56 307.689 55.2 305.289 55.2V83.28C305.289 85.68 305.489 87.48 305.889 88.68C306.369 89.8 307.249 90.56 308.529 90.96C309.809 91.36 311.809 91.56 314.529 91.56C314.769 91.56 314.889 91.8 314.889 92.28C314.889 92.76 314.769 93 314.529 93C311.729 93 309.489 92.96 307.809 92.88L297.849 92.76L289.089 92.88C287.489 92.96 285.329 93 282.609 93C282.369 93 282.249 92.76 282.249 92.28C282.249 91.8 282.369 91.56 282.609 91.56C285.329 91.56 287.329 91.36 288.609 90.96C289.889 90.56 290.769 89.8 291.249 88.68C291.729 87.48 291.969 85.68 291.969 83.28V27.72C291.969 25.32 291.729 23.56 291.249 22.44C290.769 21.32 289.889 20.56 288.609 20.16C287.409 19.68 285.449 19.44 282.729 19.44C282.489 19.44 282.369 19.2 282.369 18.72C282.369 18.24 282.489 18 282.729 18L289.089 18.12C292.769 18.28 295.689 18.36 297.849 18.36C300.569 18.36 303.929 18.28 307.929 18.12L314.529 18C314.769 18 314.889 18.24 314.889 18.72C314.889 19.2 314.769 19.44 314.529 19.44C311.889 19.44 309.929 19.68 308.649 20.16C307.369 20.64 306.489 21.48 306.009 22.68C305.529 23.8 305.289 25.56 305.289 27.96V53.16C307.449 53.08 310.169 53.04 313.449 53.04L326.049 35.76C329.329 31.2 330.969 27.4 330.969 24.36C330.969 22.84 330.529 21.64 329.649 20.76C328.769 19.88 327.569 19.44 326.049 19.44C325.889 19.44 325.809 19.2 325.809 18.72C325.809 18.24 325.889 18 326.049 18L331.569 18.12C335.089 18.28 338.209 18.36 340.929 18.36C344.049 18.36 347.289 18.28 350.649 18.12L355.809 18C356.049 18 356.169 18.24 356.169 18.72C356.169 19.2 356.049 19.44 355.809 19.44C352.289 19.44 348.329 20.72 343.929 23.28C339.529 25.84 335.809 29.04 332.769 32.88L316.449 53.16C319.569 53.32 322.129 53.92 324.129 54.96C326.129 55.92 328.089 57.48 330.009 59.64C332.009 61.8 334.809 65.4 338.409 70.44L340.569 73.44C343.929 78.08 346.529 81.56 348.369 83.88C350.289 86.2 352.249 88.04 354.249 89.4C356.249 90.76 358.409 91.48 360.729 91.56Z" fill="#195557"/>
<path d="M447.608 91.56C447.848 91.56 447.968 91.8 447.968 92.28C447.968 92.76 447.848 93 447.608 93C444.808 93 442.568 92.96 440.888 92.88L431.648 92.76L420.848 92.88C419.408 92.96 417.448 93 414.968 93C414.728 93 414.608 92.76 414.608 92.28C414.608 91.8 414.728 91.56 414.968 91.56C417.928 91.56 420.088 91.36 421.448 90.96C422.808 90.56 423.728 89.8 424.208 88.68C424.688 87.56 424.928 85.76 424.928 83.28V34.2L376.928 94.32C376.688 94.56 376.088 94.68 375.128 94.68C373.608 94.68 372.848 94.4 372.848 93.84V27.72C372.848 25.32 372.608 23.56 372.128 22.44C371.648 21.32 370.768 20.56 369.488 20.16C368.208 19.68 366.208 19.44 363.488 19.44C363.248 19.44 363.128 19.2 363.128 18.72C363.128 18.24 363.248 18 363.488 18L370.208 18.12C374.208 18.28 377.288 18.36 379.448 18.36C382.648 18.36 386.248 18.28 390.248 18.12L396.128 18C396.368 18 396.488 18.24 396.488 18.72C396.488 19.2 396.368 19.44 396.128 19.44C393.168 19.44 391.008 19.68 389.648 20.16C388.288 20.56 387.368 21.32 386.888 22.44C386.408 23.56 386.168 25.32 386.168 27.72V77.28L434.168 17.16C434.408 16.92 435.008 16.8 435.968 16.8C436.528 16.8 437.048 16.88 437.528 17.04C438.008 17.2 438.248 17.4 438.248 17.64V83.28C438.248 85.68 438.488 87.48 438.968 88.68C439.448 89.8 440.328 90.56 441.608 90.96C442.888 91.36 444.888 91.56 447.608 91.56Z" fill="#195557"/>
<path d="M21.2679 0.999999C22.0377 -0.333334 23.9622 -0.333333 24.732 1L28.1962 7C28.966 8.33334 28.0037 10 26.4641 10H19.5359C17.9963 10 17.034 8.33333 17.8038 7L21.2679 0.999999Z" fill="#195557"/>
<path d="M45.2679 0.999999C46.0378 -0.333334 47.9622 -0.333333 48.732 1L52.1962 7C52.966 8.33334 52.0037 10 50.4641 10H43.5359C41.9963 10 41.034 8.33333 41.8038 7L45.2679 0.999999Z" fill="#195557"/>
</g>
<defs>
<filter id="filter0_d" x="0.559998" y="0" width="451.408" height="102.68" filterUnits="userSpaceOnUse" color-interpolation-filters="sRGB">
<feFlood flood-opacity="0" result="BackgroundImageFix"/>
<feColorMatrix in="SourceAlpha" type="matrix" values="0 0 0 0 0 0 0 0 0 0 0 0 0 0 0 0 0 0 127 0"/>
<feOffset dy="4"/>
<feGaussianBlur stdDeviation="2"/>
<feColorMatrix type="matrix" values="0 0 0 0 0 0 0 0 0 0 0 0 0 0 0 0 0 0 0.25 0"/>
<feBlend mode="normal" in2="BackgroundImageFix" result="effect1_dropShadow"/>
<feBlend mode="normal" in="SourceGraphic" in2="effect1_dropShadow" result="shape"/>
</filter>
</defs>
</svg>
