<svg width="37" height="37" viewBox="0 0 37 37" fill="none" xmlns="http://www.w3.org/2000/svg">
<path d="M18.5 2.3125C9.56074 2.3125 2.3125 9.56074 2.3125 18.5C2.3125 27.4393 9.56074 34.6875 18.5 34.6875C27.4393 34.6875 34.6875 27.4393 34.6875 18.5C34.6875 9.56074 27.4393 2.3125 18.5 2.3125ZM18.5 31.9414C11.0783 31.9414 5.05859 25.9217 5.05859 18.5C5.05859 11.0783 11.0783 5.05859 18.5 5.05859C25.9217 5.05859 31.9414 11.0783 31.9414 18.5C31.9414 25.9217 25.9217 31.9414 18.5 31.9414Z" fill="#195557"/>
<path d="M16.7656 12.1406C16.7656 12.6006 16.9484 13.0418 17.2736 13.367C17.5989 13.6923 18.04 13.875 18.5 13.875C18.96 13.875 19.4011 13.6923 19.7264 13.367C20.0516 13.0418 20.2344 12.6006 20.2344 12.1406C20.2344 11.6806 20.0516 11.2395 19.7264 10.9142C19.4011 10.589 18.96 10.4063 18.5 10.4062C18.04 10.4063 17.5989 10.589 17.2736 10.9142C16.9484 11.2395 16.7656 11.6806 16.7656 12.1406ZM19.3672 16.1875H17.6328C17.4738 16.1875 17.3438 16.3176 17.3438 16.4766V26.3047C17.3438 26.4637 17.4738 26.5938 17.6328 26.5938H19.3672C19.5262 26.5938 19.6562 26.4637 19.6562 26.3047V16.4766C19.6562 16.3176 19.5262 16.1875 19.3672 16.1875Z" fill="#195557"/>
</svg>
