<svg width="40" height="40" viewBox="0 0 40 40" fill="none" xmlns="http://www.w3.org/2000/svg">
<path d="M20 5C11.6667 5 5 11.6667 5 20C5 28.3333 11.6667 35 20 35C28.3333 35 35 28.3333 35 20C35 11.6667 28.3333 5 20 5ZM20 16.6667C21.8333 16.6667 23.3333 18.1667 23.3333 20C23.3333 21.8333 21.8333 23.3333 20 23.3333C18.1667 23.3333 16.6667 21.8333 16.6667 20C16.6667 18.1667 18.1667 16.6667 20 16.6667ZM24.6667 13.3333C24.6667 12.1667 25.6667 11.3333 26.6667 11.3333C27.6667 11.3333 28.6667 12.3333 28.6667 13.3333C28.6667 14.3333 27.8333 15.3333 26.6667 15.3333C25.5 15.3333 24.6667 14.5 24.6667 13.3333ZM20 31.6667C13.5 31.6667 8.33333 26.5 8.33333 20H13.3333C13.3333 23.6667 16.3333 26.6667 20 26.6667C23.6667 26.6667 26.6667 23.6667 26.6667 20H31.6667C31.6667 26.5 26.5 31.6667 20 31.6667Z" fill="white"/>
</svg>
