<svg width="72" height="72" viewBox="0 0 72 72"  xmlns="http://www.w3.org/2000/svg">
<path d="M13.588 35.586C13.588 35.586 9.42 40.752 9.92 43.919L7.087 46.419V47.919C7.087 47.919 13.92 50.752 20.42 48.752V51.252L20.587 53.752L23.92 55.085C23.92 55.085 27.753 54.419 28.753 49.085C28.753 49.085 32.753 50.585 34.42 54.919L39.087 54.585C39.087 54.585 39.753 52.085 38.92 50.419L59.42 50.085L61.42 51.919V53.919L62.42 55.085H64.587L66.253 53.252L64.42 46.752L65.92 42.085C65.92 42.085 48.587 52.585 24.587 38.919L22.754 35.085C22.754 35.085 18.92 35.752 19.087 36.752C19.087 36.752 18.253 34.086 13.587 35.586H13.588Z" fill="#9B9B9A"/>
<path d="M24.463 26.638C23.607 28.888 22.63 29.932 21.849 30.724C21.5818 30.9992 21.2225 31.1663 20.8399 31.1932C20.4572 31.2201 20.0781 31.1051 19.775 30.87L18.591 29.944L15.167 34.998C14.9443 35.3267 14.6445 35.5958 14.2937 35.7818C13.943 35.9678 13.552 36.065 13.155 36.065C13.155 36.065 10.483 39.336 9.553 42.871C9.293 43.862 8.671 44.721 7.849 45.333L7.468 45.618C7.468 45.618 5.118 47.58 7.923 48.433C7.923 48.433 17.546 51.472 22.879 47.222M41.379 22.305C41.379 22.305 39.555 23.532 38.179 23.794C37.589 23.907 37.017 24.024 36.464 24.144L33.296 23.472C31.725 25.267 29.542 26.122 28.005 26.796M59.963 28.805C57.977 28.805 57.413 28.652 56.293 27.748C55.4245 27.0493 54.6888 26.2001 54.121 25.241L53.713 24.551C51.072 24.551 48.246 24.231 45.665 23.807M66.254 38.5C63.158 37.346 62.72 34.085 61.696 32.765M20.818 51.745L20.591 52.218C20.4443 52.5229 20.3774 52.8599 20.3965 53.1977C20.4155 53.5355 20.52 53.8629 20.7 54.1493C20.88 54.4357 21.1298 54.6718 21.4259 54.8354C21.7219 54.9991 22.0547 55.0849 22.393 55.085H24.02C24.3806 55.0852 24.7345 54.9879 25.0443 54.8034C25.3542 54.6189 25.6084 54.3541 25.78 54.037L28.625 48.774C28.625 48.774 32.126 50.224 33.379 53.81C33.652 54.591 34.428 55.085 35.255 55.085H37.278C37.5584 55.0857 37.8357 55.0274 38.092 54.9138C38.3483 54.8002 38.5778 54.6338 38.7656 54.4256C38.9533 54.2174 39.0951 53.972 39.1816 53.7053C39.2682 53.4387 39.2976 53.1568 39.268 52.878C39.165 51.95 38.977 50.988 38.635 50.565C38.635 50.565 53.791 51.002 58.642 49.953C59.666 49.731 60.686 50.351 60.912 51.374C61.022 51.87 61.087 52.426 61.054 53.011C60.99 54.151 61.907 55.085 63.048 55.085H63.438C64.562 55.085 65.438 54.285 65.511 53.243C65.634 51.499 65.497 48.851 63.963 46.812C63.963 46.812 65.096 45.82 65.075 42.725M19.21 37.218C19.21 37.218 21.334 33.891 23.23 36.876C24.509 38.891 22.922 41.918 21.755 43.674C21.4861 44.0775 21.0856 44.3754 20.6218 44.5169C20.1579 44.6584 19.6594 44.6348 19.211 44.45M27.421 34.597L32.421 30.472M31.546 40.12L37.546 38.062M36.921 32.765L42.968 29.972M39.944 43.472L46.796 42.725M48.796 36.633L55.671 37.865M46.944 32.49L52.398 29.987M53.04 43.769L59.301 45.446" stroke="#195557" stroke-width="2" stroke-miterlimit="10" stroke-linecap="round" stroke-linejoin="round"/>
</svg>
