<svg width="22" height="22" viewBox="0 0 22 22" fill="none" xmlns="http://www.w3.org/2000/svg">
<path d="M19.8301 6.09298C19.5421 5.42619 19.1269 4.82194 18.6076 4.31408C18.088 3.8047 17.4753 3.3999 16.8029 3.12169C16.1057 2.83207 15.3579 2.68382 14.6029 2.68556C13.5438 2.68556 12.5104 2.9756 11.6123 3.52345C11.3975 3.65451 11.1934 3.79845 11 3.95529C10.8066 3.79845 10.6025 3.65451 10.3877 3.52345C9.48965 2.9756 8.45625 2.68556 7.39707 2.68556C6.63438 2.68556 5.89531 2.83166 5.19707 3.12169C4.52246 3.40099 3.91445 3.80275 3.39238 4.31408C2.87245 4.82137 2.45712 5.42576 2.16992 6.09298C1.87129 6.78693 1.71875 7.52384 1.71875 8.28224C1.71875 8.99767 1.86484 9.74318 2.15488 10.5016C2.39766 11.1354 2.7457 11.7928 3.19043 12.4567C3.89512 13.5072 4.86406 14.6029 6.06719 15.7137C8.06094 17.5549 10.0354 18.8268 10.1191 18.8783L10.6283 19.2049C10.8539 19.3488 11.1439 19.3488 11.3695 19.2049L11.8787 18.8783C11.9625 18.8246 13.9348 17.5549 15.9307 15.7137C17.1338 14.6029 18.1027 13.5072 18.8074 12.4567C19.2521 11.7928 19.6023 11.1354 19.843 10.5016C20.133 9.74318 20.2791 8.99767 20.2791 8.28224C20.2813 7.52384 20.1287 6.78693 19.8301 6.09298ZM11 17.5055C11 17.5055 3.35156 12.6049 3.35156 8.28224C3.35156 6.09298 5.1627 4.31837 7.39707 4.31837C8.96758 4.31837 10.3297 5.19494 11 6.4754C11.6703 5.19494 13.0324 4.31837 14.6029 4.31837C16.8373 4.31837 18.6484 6.09298 18.6484 8.28224C18.6484 12.6049 11 17.5055 11 17.5055Z" fill="white"/>
<path d="M14.6029 4.31836C13.0324 4.31836 11.6703 5.19492 11 6.47539C10.3297 5.19492 8.96758 4.31836 7.39707 4.31836C5.1627 4.31836 3.35156 6.09297 3.35156 8.28223C3.35156 12.6049 11 17.5055 11 17.5055C11 17.5055 18.6484 12.6049 18.6484 8.28223C18.6484 6.09297 16.8373 4.31836 14.6029 4.31836Z" fill="black" fill-opacity="0.1"/>
</svg>
