<svg width="132" height="57" viewBox="0 0 132 57" fill="none" xmlns="http://www.w3.org/2000/svg">
<path d="M69.7521 22.2364C69.7521 22.6688 70.1027 23.0194 70.5351 23.0194H71.9714C72.4039 23.0194 72.7545 22.6688 72.7545 22.2364C72.7545 21.804 72.4039 21.4534 71.9714 21.4534H70.5351C70.1027 21.4534 69.7521 21.804 69.7521 22.2364Z" fill="white"/>
<path d="M80.0062 26.4806C79.845 26.4806 79.6873 26.4951 79.5335 26.5212L74.3726 17.9589C74.3933 17.9336 74.4131 17.9073 74.431 17.879L77.8968 12.3746C78.0405 12.1464 78.0565 11.8603 77.9395 11.6174C77.8224 11.3745 77.5885 11.2088 77.3206 11.1791L71.6347 10.5477L72.2803 4.86373C72.3107 4.59603 72.2014 4.33146 71.9906 4.16334C71.7802 3.99531 71.498 3.94723 71.2435 4.03631L65.844 5.92653L63.9585 0.525034C63.8696 0.270412 63.6561 0.0794463 63.3932 0.0195679C63.1305 -0.0401263 62.855 0.0392819 62.6647 0.230248L58.6251 4.28218L54.5855 0.230248C54.3951 0.0392819 54.1198 -0.0403106 53.8571 0.0195679C53.5941 0.0794463 53.3806 0.270505 53.2917 0.524942L51.4063 5.92644L46.0066 4.03631C45.7522 3.94732 45.47 3.99522 45.2594 4.16334C45.0488 4.33137 44.9394 4.59594 44.9698 4.86373L45.6154 10.5477L39.9296 11.1792C39.6615 11.2089 39.4277 11.3745 39.3106 11.6175C39.1936 11.8604 39.2097 12.1464 39.3534 12.3747L42.4014 17.2156L37.5576 20.2576C37.3295 20.4008 37.191 20.6513 37.191 20.9206C37.191 21.19 37.3295 21.4404 37.5576 21.5837L42.4015 24.6257L39.3535 29.4667C39.2016 29.7079 39.1928 30.0125 39.3305 30.262C39.468 30.5115 39.7303 30.6666 40.0153 30.667L77.5944 30.7093C78.0832 31.5329 78.9811 32.0865 80.0062 32.0865C81.5518 32.0865 82.8092 30.8291 82.8092 29.2835C82.809 27.7379 81.5517 26.4806 80.0062 26.4806ZM77.2069 29.1428L63.2456 29.127C61.3969 22.8652 65.9751 17.9954 71.3158 15.9213L78.1207 27.2112C77.5898 27.6947 77.2448 28.379 77.2069 29.1428ZM44.1444 24.7968C44.2551 24.6209 44.2914 24.4082 44.2453 24.2056C44.199 24.003 44.0743 23.8271 43.8983 23.7164L39.4464 20.9206L43.8983 18.1247C44.0743 18.0141 44.1991 17.8382 44.2453 17.6355C44.2915 17.4329 44.2551 17.2202 44.1444 17.0443L41.3445 12.5975L46.5685 12.0174C46.7753 11.9944 46.9643 11.8901 47.0941 11.7276C47.2239 11.565 47.2836 11.3574 47.2601 11.1508L46.6668 5.92644L51.6285 7.66337C51.8245 7.732 52.0399 7.71975 52.2272 7.62975C52.4144 7.53947 52.558 7.37854 52.6265 7.1825L54.3586 2.22061L58.0706 5.94403C58.2175 6.09143 58.417 6.17424 58.6251 6.17424C58.8332 6.17424 59.0328 6.09143 59.1797 5.94403L62.8918 2.22061L64.6237 7.1825C64.6922 7.37872 64.8359 7.53966 65.0231 7.62984C65.2102 7.72003 65.4257 7.73219 65.6218 7.66347L70.5836 5.92653L69.9902 11.1509C69.9667 11.3575 70.0265 11.5651 70.1562 11.7276C70.2859 11.8903 70.4751 11.9945 70.6818 12.0175L75.9058 12.5975L73.4715 16.4636L72.3237 14.5593C72.1326 14.2424 71.746 14.1027 71.3968 14.2235C67.806 15.4669 64.8564 17.6385 63.0919 20.3383C61.3345 23.0272 60.8338 26.0454 61.6208 29.125L41.4337 29.1023L44.1444 24.7968ZM80.0062 30.5204C79.3242 30.5204 78.7693 29.9655 78.7693 29.2835C78.7693 28.6014 79.3242 28.0465 80.0062 28.0465C80.6881 28.0465 81.2431 28.6014 81.2431 29.2835C81.2431 29.9655 80.6881 30.5204 80.0062 30.5204Z" fill="white"/>
<path d="M16.104 55.5451C16.148 55.5451 16.17 55.5891 16.17 55.6771C16.17 55.7651 16.148 55.8091 16.104 55.8091C15.5907 55.8091 15.18 55.8017 14.872 55.7871L13.178 55.7651L11.198 55.7871C10.934 55.8017 10.5747 55.8091 10.12 55.8091C10.076 55.8091 10.054 55.7651 10.054 55.6771C10.054 55.5891 10.076 55.5451 10.12 55.5451C10.6627 55.5451 11.0587 55.5084 11.308 55.4351C11.5573 55.3617 11.726 55.2224 11.814 55.0171C11.902 54.8117 11.946 54.4817 11.946 54.0271V48.9671H4.84V54.0271C4.84 54.4671 4.884 54.7971 4.972 55.0171C5.06 55.2224 5.22867 55.3617 5.478 55.4351C5.72733 55.5084 6.12333 55.5451 6.666 55.5451C6.69533 55.5451 6.71 55.5891 6.71 55.6771C6.71 55.7651 6.69533 55.8091 6.666 55.8091C6.15267 55.8091 5.742 55.8017 5.434 55.7871L3.52 55.7651L1.87 55.7871C1.57667 55.8017 1.17333 55.8091 0.66 55.8091C0.630667 55.8091 0.616 55.7651 0.616 55.6771C0.616 55.5891 0.630667 55.5451 0.66 55.5451C1.17333 55.5451 1.54733 55.5084 1.782 55.4351C2.01667 55.3617 2.178 55.2224 2.266 55.0171C2.354 54.7971 2.398 54.4671 2.398 54.0271V43.8411C2.398 43.4011 2.354 43.0784 2.266 42.8731C2.178 42.6677 2.01667 42.5284 1.782 42.4551C1.562 42.3671 1.20267 42.3231 0.704 42.3231C0.66 42.3231 0.638 42.2791 0.638 42.1911C0.638 42.1031 0.66 42.0591 0.704 42.0591L1.892 42.0811C2.56667 42.1104 3.10933 42.1251 3.52 42.1251C4.07733 42.1251 4.72267 42.1104 5.456 42.0811L6.666 42.0591C6.69533 42.0591 6.71 42.1031 6.71 42.1911C6.71 42.2791 6.69533 42.3231 6.666 42.3231C6.138 42.3231 5.74933 42.3671 5.5 42.4551C5.25067 42.5431 5.07467 42.6971 4.972 42.9171C4.884 43.1224 4.84 43.4451 4.84 43.8851V48.3511H11.946V43.8851C11.946 43.4451 11.902 43.1224 11.814 42.9171C11.726 42.6971 11.5573 42.5431 11.308 42.4551C11.0587 42.3671 10.6627 42.3231 10.12 42.3231C10.076 42.3231 10.054 42.2791 10.054 42.1911C10.054 42.1031 10.076 42.0591 10.12 42.0591L11.198 42.0811C11.9313 42.1104 12.5913 42.1251 13.178 42.1251C13.574 42.1251 14.1387 42.1104 14.872 42.0811L16.104 42.0591C16.148 42.0591 16.17 42.1031 16.17 42.1911C16.17 42.2791 16.148 42.3231 16.104 42.3231C15.6053 42.3231 15.2313 42.3671 14.982 42.4551C14.7473 42.5284 14.586 42.6677 14.498 42.8731C14.4247 43.0784 14.388 43.4011 14.388 43.8411V54.0271C14.388 54.4671 14.4247 54.7971 14.498 55.0171C14.586 55.2224 14.7473 55.3617 14.982 55.4351C15.2167 55.5084 15.5907 55.5451 16.104 55.5451ZM27.7128 52.3111C27.7128 52.2817 27.7421 52.2671 27.8008 52.2671C27.8448 52.2671 27.8814 52.2817 27.9108 52.3111C27.9548 52.3257 27.9768 52.3404 27.9768 52.3551C27.8301 53.4991 27.7568 54.5404 27.7568 55.4791C27.7568 55.5964 27.7348 55.6844 27.6908 55.7431C27.6468 55.7871 27.5588 55.8091 27.4268 55.8091H17.7028C17.6588 55.8091 17.6368 55.7651 17.6368 55.6771C17.6368 55.5891 17.6588 55.5451 17.7028 55.5451C18.1721 55.5451 18.5094 55.5084 18.7148 55.4351C18.9348 55.3617 19.0814 55.2224 19.1548 55.0171C19.2281 54.7971 19.2648 54.4671 19.2648 54.0271V43.8411C19.2648 43.4011 19.2281 43.0784 19.1548 42.8731C19.0814 42.6677 18.9348 42.5284 18.7148 42.4551C18.4948 42.3671 18.1574 42.3231 17.7028 42.3231C17.6588 42.3231 17.6368 42.2791 17.6368 42.1911C17.6368 42.1031 17.6588 42.0591 17.7028 42.0591H27.0308C27.1774 42.0591 27.2508 42.1251 27.2508 42.2571L27.2948 45.1831C27.2948 45.2124 27.2508 45.2344 27.1628 45.2491C27.0894 45.2637 27.0454 45.2491 27.0308 45.2051C26.7961 44.3544 26.4001 43.7237 25.8428 43.3131C25.2854 42.9024 24.5521 42.6971 23.6428 42.6971H22.9828C22.5428 42.6971 22.2201 42.7924 22.0148 42.9831C21.8094 43.1737 21.7068 43.4671 21.7068 43.8631V48.3511H23.5328C24.3834 48.3511 25.0361 48.2044 25.4908 47.9111C25.9454 47.6177 26.1728 47.2071 26.1728 46.6791C26.1728 46.6351 26.2094 46.6131 26.2828 46.6131C26.3708 46.6131 26.4148 46.6351 26.4148 46.6791L26.3928 48.6591L26.4148 49.7151C26.4441 50.2137 26.4588 50.6097 26.4588 50.9031C26.4588 50.9324 26.4148 50.9471 26.3268 50.9471C26.2388 50.9471 26.1948 50.9324 26.1948 50.9031C26.1948 50.3017 25.9601 49.8324 25.4908 49.4951C25.0361 49.1431 24.3761 48.9671 23.5108 48.9671H21.7068V53.9391C21.7068 54.3644 21.7874 54.6797 21.9488 54.8851C22.1101 55.0904 22.3668 55.1931 22.7188 55.1931H23.4448C24.5888 55.1931 25.5054 54.9584 26.1948 54.4891C26.8841 54.0197 27.3901 53.2937 27.7128 52.3111ZM36.1115 55.8971C35.6421 55.8971 35.0848 55.8751 34.4395 55.8311C34.2048 55.8164 33.9115 55.8017 33.5595 55.7871C33.2221 55.7724 32.8408 55.7651 32.4155 55.7651L30.7875 55.7871C30.4941 55.8017 30.0981 55.8091 29.5995 55.8091C29.5701 55.8091 29.5555 55.7651 29.5555 55.6771C29.5555 55.5891 29.5701 55.5451 29.5995 55.5451C30.0688 55.5451 30.4135 55.5084 30.6335 55.4351C30.8535 55.3617 31.0001 55.2224 31.0735 55.0171C31.1615 54.7971 31.2055 54.4671 31.2055 54.0271V43.8411C31.2055 43.4011 31.1615 43.0784 31.0735 42.8731C31.0001 42.6677 30.8535 42.5284 30.6335 42.4551C30.4281 42.3671 30.0981 42.3231 29.6435 42.3231C29.5995 42.3231 29.5775 42.2791 29.5775 42.1911C29.5775 42.1031 29.5995 42.0591 29.6435 42.0591L30.8095 42.0811C31.4841 42.1104 32.0195 42.1251 32.4155 42.1251C33.0168 42.1251 33.6328 42.1031 34.2635 42.0591C35.0261 42.0297 35.5395 42.0151 35.8035 42.0151C37.2848 42.0151 38.5975 42.3084 39.7415 42.8951C40.9001 43.4817 41.7948 44.2811 42.4255 45.2931C43.0561 46.3051 43.3715 47.4417 43.3715 48.7031C43.3715 50.1257 43.0415 51.3871 42.3815 52.4871C41.7361 53.5724 40.8561 54.4157 39.7415 55.0171C38.6415 55.6037 37.4315 55.8971 36.1115 55.8971ZM35.8915 55.3911C36.8301 55.3911 37.6588 55.1564 38.3775 54.6871C39.0961 54.2031 39.6535 53.4917 40.0495 52.5531C40.4601 51.6144 40.6655 50.4924 40.6655 49.1871C40.6655 47.9404 40.4748 46.8111 40.0935 45.7991C39.7121 44.7724 39.1695 43.9657 38.4655 43.3791C37.7615 42.7924 36.9475 42.4991 36.0235 42.4991C35.1141 42.4991 34.4908 42.5871 34.1535 42.7631C33.8161 42.9391 33.6475 43.3131 33.6475 43.8851V53.7851C33.6475 54.3717 33.8015 54.7897 34.1095 55.0391C34.4175 55.2737 35.0115 55.3911 35.8915 55.3911ZM53.4492 56.0731C51.8358 56.0731 50.4278 55.7651 49.2252 55.1491C48.0225 54.5331 47.1058 53.6971 46.4752 52.6411C45.8445 51.5704 45.5292 50.3824 45.5292 49.0771C45.5292 47.6691 45.8885 46.4151 46.6072 45.3151C47.3405 44.2004 48.3378 43.3424 49.5992 42.7411C50.8752 42.1251 52.2978 41.8171 53.8672 41.8171C54.5565 41.8171 55.2532 41.8757 55.9572 41.9931C56.6612 42.0957 57.2258 42.2351 57.6512 42.4111C57.7832 42.4551 57.8638 42.5137 57.8932 42.5871C57.9372 42.6457 57.9665 42.7557 57.9812 42.9171L58.2672 45.9751C58.2672 46.0191 58.2305 46.0484 58.1572 46.0631C58.0838 46.0777 58.0325 46.0557 58.0032 45.9971C57.4898 44.8677 56.7785 43.9877 55.8692 43.3571C54.9745 42.7264 53.9478 42.4111 52.7892 42.4111C51.2932 42.4111 50.1492 42.9317 49.3572 43.9731C48.5798 45.0144 48.1912 46.4371 48.1912 48.2411C48.1912 49.6931 48.4405 50.9911 48.9392 52.1351C49.4378 53.2644 50.1272 54.1444 51.0072 54.7751C51.9018 55.3911 52.8992 55.6991 53.9992 55.6991C54.6005 55.6991 55.0625 55.6331 55.3852 55.5011C55.7078 55.3691 55.9425 55.1124 56.0892 54.7311C56.2358 54.3497 56.3092 53.7851 56.3092 53.0371C56.3092 52.2744 56.2652 51.7464 56.1772 51.4531C56.0892 51.1451 55.8985 50.9397 55.6052 50.8371C55.3265 50.7344 54.8352 50.6831 54.1312 50.6831C54.0432 50.6831 53.9992 50.6244 53.9992 50.5071C53.9992 50.4631 54.0065 50.4264 54.0212 50.3971C54.0505 50.3531 54.0798 50.3311 54.1092 50.3311C55.3558 50.4044 56.3605 50.4411 57.1232 50.4411C57.8712 50.4411 58.6485 50.4191 59.4552 50.3751C59.4845 50.3751 59.5065 50.3971 59.5212 50.4411C59.5505 50.4704 59.5652 50.4997 59.5652 50.5291C59.5652 50.6317 59.5285 50.6831 59.4552 50.6831C59.1912 50.6684 59.0078 50.7197 58.9052 50.8371C58.8025 50.9397 58.7365 51.1597 58.7072 51.4971C58.6778 51.8197 58.6632 52.4064 58.6632 53.2571C58.6632 53.9171 58.6852 54.3864 58.7292 54.6651C58.7878 54.9437 58.8172 55.1197 58.8172 55.1931C58.8172 55.2811 58.7952 55.3397 58.7512 55.3691C58.7218 55.3984 58.6558 55.4277 58.5532 55.4571C56.6612 55.8677 54.9598 56.0731 53.4492 56.0731ZM71.1757 52.3111C71.1757 52.2817 71.205 52.2671 71.2637 52.2671C71.3077 52.2671 71.3443 52.2817 71.3737 52.3111C71.4177 52.3257 71.4397 52.3404 71.4397 52.3551C71.293 53.4991 71.2197 54.5404 71.2197 55.4791C71.2197 55.5964 71.1977 55.6844 71.1537 55.7431C71.1097 55.7871 71.0217 55.8091 70.8897 55.8091H61.1657C61.1217 55.8091 61.0997 55.7651 61.0997 55.6771C61.0997 55.5891 61.1217 55.5451 61.1657 55.5451C61.635 55.5451 61.9723 55.5084 62.1777 55.4351C62.3977 55.3617 62.5443 55.2224 62.6177 55.0171C62.691 54.7971 62.7277 54.4671 62.7277 54.0271V43.8411C62.7277 43.4011 62.691 43.0784 62.6177 42.8731C62.5443 42.6677 62.3977 42.5284 62.1777 42.4551C61.9577 42.3671 61.6203 42.3231 61.1657 42.3231C61.1217 42.3231 61.0997 42.2791 61.0997 42.1911C61.0997 42.1031 61.1217 42.0591 61.1657 42.0591H70.4937C70.6403 42.0591 70.7137 42.1251 70.7137 42.2571L70.7577 45.1831C70.7577 45.2124 70.7137 45.2344 70.6257 45.2491C70.5523 45.2637 70.5083 45.2491 70.4937 45.2051C70.259 44.3544 69.863 43.7237 69.3057 43.3131C68.7483 42.9024 68.015 42.6971 67.1057 42.6971H66.4457C66.0057 42.6971 65.683 42.7924 65.4777 42.9831C65.2723 43.1737 65.1697 43.4671 65.1697 43.8631V48.3511H66.9957C67.8463 48.3511 68.499 48.2044 68.9537 47.9111C69.4083 47.6177 69.6357 47.2071 69.6357 46.6791C69.6357 46.6351 69.6723 46.6131 69.7457 46.6131C69.8337 46.6131 69.8777 46.6351 69.8777 46.6791L69.8557 48.6591L69.8777 49.7151C69.907 50.2137 69.9217 50.6097 69.9217 50.9031C69.9217 50.9324 69.8777 50.9471 69.7897 50.9471C69.7017 50.9471 69.6577 50.9324 69.6577 50.9031C69.6577 50.3017 69.423 49.8324 68.9537 49.4951C68.499 49.1431 67.839 48.9671 66.9737 48.9671H65.1697V53.9391C65.1697 54.3644 65.2503 54.6797 65.4117 54.8851C65.573 55.0904 65.8297 55.1931 66.1817 55.1931H66.9077C68.0517 55.1931 68.9683 54.9584 69.6577 54.4891C70.347 54.0197 70.853 53.2937 71.1757 52.3111ZM88.5063 55.5451C88.5503 55.5451 88.5723 55.5891 88.5723 55.6771C88.5723 55.7651 88.5503 55.8091 88.5063 55.8091C87.993 55.8091 87.5823 55.8017 87.2743 55.7871L85.5803 55.7651L83.6003 55.7871C83.3363 55.8017 82.977 55.8091 82.5223 55.8091C82.4783 55.8091 82.4563 55.7651 82.4563 55.6771C82.4563 55.5891 82.4783 55.5451 82.5223 55.5451C83.065 55.5451 83.461 55.5084 83.7103 55.4351C83.9597 55.3617 84.1283 55.2224 84.2163 55.0171C84.3043 54.8117 84.3483 54.4817 84.3483 54.0271V48.9671H77.2423V54.0271C77.2423 54.4671 77.2863 54.7971 77.3743 55.0171C77.4623 55.2224 77.631 55.3617 77.8803 55.4351C78.1297 55.5084 78.5257 55.5451 79.0683 55.5451C79.0977 55.5451 79.1123 55.5891 79.1123 55.6771C79.1123 55.7651 79.0977 55.8091 79.0683 55.8091C78.555 55.8091 78.1443 55.8017 77.8363 55.7871L75.9223 55.7651L74.2723 55.7871C73.979 55.8017 73.5757 55.8091 73.0623 55.8091C73.033 55.8091 73.0183 55.7651 73.0183 55.6771C73.0183 55.5891 73.033 55.5451 73.0623 55.5451C73.5757 55.5451 73.9497 55.5084 74.1843 55.4351C74.419 55.3617 74.5803 55.2224 74.6683 55.0171C74.7563 54.7971 74.8003 54.4671 74.8003 54.0271V43.8411C74.8003 43.4011 74.7563 43.0784 74.6683 42.8731C74.5803 42.6677 74.419 42.5284 74.1843 42.4551C73.9643 42.3671 73.605 42.3231 73.1063 42.3231C73.0623 42.3231 73.0403 42.2791 73.0403 42.1911C73.0403 42.1031 73.0623 42.0591 73.1063 42.0591L74.2943 42.0811C74.969 42.1104 75.5117 42.1251 75.9223 42.1251C76.4797 42.1251 77.125 42.1104 77.8583 42.0811L79.0683 42.0591C79.0977 42.0591 79.1123 42.1031 79.1123 42.1911C79.1123 42.2791 79.0977 42.3231 79.0683 42.3231C78.5403 42.3231 78.1517 42.3671 77.9023 42.4551C77.653 42.5431 77.477 42.6971 77.3743 42.9171C77.2863 43.1224 77.2423 43.4451 77.2423 43.8851V48.3511H84.3483V43.8851C84.3483 43.4451 84.3043 43.1224 84.2163 42.9171C84.1283 42.6971 83.9597 42.5431 83.7103 42.4551C83.461 42.3671 83.065 42.3231 82.5223 42.3231C82.4783 42.3231 82.4563 42.2791 82.4563 42.1911C82.4563 42.1031 82.4783 42.0591 82.5223 42.0591L83.6003 42.0811C84.3337 42.1104 84.9937 42.1251 85.5803 42.1251C85.9763 42.1251 86.541 42.1104 87.2743 42.0811L88.5063 42.0591C88.5503 42.0591 88.5723 42.1031 88.5723 42.1911C88.5723 42.2791 88.5503 42.3231 88.5063 42.3231C88.0077 42.3231 87.6337 42.3671 87.3843 42.4551C87.1497 42.5284 86.9883 42.6677 86.9003 42.8731C86.827 43.0784 86.7903 43.4011 86.7903 43.8411V54.0271C86.7903 54.4671 86.827 54.7971 86.9003 55.0171C86.9883 55.2224 87.1497 55.3617 87.3843 55.4351C87.619 55.5084 87.993 55.5451 88.5063 55.5451ZM97.2551 56.0731C95.8911 56.0731 94.6738 55.7577 93.6031 55.1271C92.5471 54.4817 91.7258 53.6164 91.1391 52.5311C90.5671 51.4311 90.2811 50.2357 90.2811 48.9451C90.2811 47.4344 90.6625 46.1437 91.4251 45.0731C92.1878 43.9877 93.1631 43.1737 94.3511 42.6311C95.5538 42.0884 96.7785 41.8171 98.0251 41.8171C99.4185 41.8171 100.643 42.1471 101.699 42.8071C102.755 43.4524 103.562 44.3104 104.119 45.3811C104.691 46.4517 104.977 47.5884 104.977 48.7911C104.977 50.1257 104.625 51.3504 103.921 52.4651C103.217 53.5797 102.271 54.4597 101.083 55.1051C99.9098 55.7504 98.6338 56.0731 97.2551 56.0731ZM97.9811 55.5231C98.8025 55.5231 99.5358 55.2884 100.181 54.8191C100.841 54.3351 101.354 53.6384 101.721 52.7291C102.088 51.8051 102.271 50.7051 102.271 49.4291C102.271 48.0797 102.066 46.8771 101.655 45.8211C101.244 44.7504 100.65 43.9144 99.8731 43.3131C99.0958 42.7117 98.1865 42.4111 97.1451 42.4111C95.8105 42.4111 94.7838 42.9171 94.0651 43.9291C93.3465 44.9264 92.9871 46.3271 92.9871 48.1311C92.9871 49.5537 93.1998 50.8297 93.6251 51.9591C94.0651 53.0737 94.6591 53.9464 95.4071 54.5771C96.1698 55.2077 97.0278 55.5231 97.9811 55.5231ZM115.045 56.0731C113.432 56.0731 112.024 55.7651 110.821 55.1491C109.618 54.5331 108.702 53.6971 108.071 52.6411C107.44 51.5704 107.125 50.3824 107.125 49.0771C107.125 47.6691 107.484 46.4151 108.203 45.3151C108.936 44.2004 109.934 43.3424 111.195 42.7411C112.471 42.1251 113.894 41.8171 115.463 41.8171C116.152 41.8171 116.849 41.8757 117.553 41.9931C118.257 42.0957 118.822 42.2351 119.247 42.4111C119.379 42.4551 119.46 42.5137 119.489 42.5871C119.533 42.6457 119.562 42.7557 119.577 42.9171L119.863 45.9751C119.863 46.0191 119.826 46.0484 119.753 46.0631C119.68 46.0777 119.628 46.0557 119.599 45.9971C119.086 44.8677 118.374 43.9877 117.465 43.3571C116.57 42.7264 115.544 42.4111 114.385 42.4111C112.889 42.4111 111.745 42.9317 110.953 43.9731C110.176 45.0144 109.787 46.4371 109.787 48.2411C109.787 49.6931 110.036 50.9911 110.535 52.1351C111.034 53.2644 111.723 54.1444 112.603 54.7751C113.498 55.3911 114.495 55.6991 115.595 55.6991C116.196 55.6991 116.658 55.6331 116.981 55.5011C117.304 55.3691 117.538 55.1124 117.685 54.7311C117.832 54.3497 117.905 53.7851 117.905 53.0371C117.905 52.2744 117.861 51.7464 117.773 51.4531C117.685 51.1451 117.494 50.9397 117.201 50.8371C116.922 50.7344 116.431 50.6831 115.727 50.6831C115.639 50.6831 115.595 50.6244 115.595 50.5071C115.595 50.4631 115.602 50.4264 115.617 50.3971C115.646 50.3531 115.676 50.3311 115.705 50.3311C116.952 50.4044 117.956 50.4411 118.719 50.4411C119.467 50.4411 120.244 50.4191 121.051 50.3751C121.08 50.3751 121.102 50.3971 121.117 50.4411C121.146 50.4704 121.161 50.4997 121.161 50.5291C121.161 50.6317 121.124 50.6831 121.051 50.6831C120.787 50.6684 120.604 50.7197 120.501 50.8371C120.398 50.9397 120.332 51.1597 120.303 51.4971C120.274 51.8197 120.259 52.4064 120.259 53.2571C120.259 53.9171 120.281 54.3864 120.325 54.6651C120.384 54.9437 120.413 55.1197 120.413 55.1931C120.413 55.2811 120.391 55.3397 120.347 55.3691C120.318 55.3984 120.252 55.4277 120.149 55.4571C118.257 55.8677 116.556 56.0731 115.045 56.0731Z" fill="white"/>
<rect x="86.7191" y="17.9983" width="31.2809" height="1.30337" fill="white"/>
<rect x="2" y="17.9983" width="29.9775" height="1.30337" fill="white"/>
</svg>
