<svg width="36" height="34" viewBox="0 0 36 34" fill="none" xmlns="http://www.w3.org/2000/svg">
<path d="M28.3773 0.435181L26.3087 2.50374L26.8478 3.04281L23.5689 6.32174L25.59 8.38887L28.8718 5.06249L30.9375 7.12962L27.6126 10.4071L29.6797 12.4297L32.9586 9.15074L33.4977 9.68981L35.5662 7.62124L28.3773 0.435181ZM20.4711 5.46643L18.4025 7.53499L19.3469 8.47799L5.0625 22.807L4.568 23.3001L4.65856 23.9757L5.15162 28.557L5.19762 29.0501L5.33131 29.1406L0.660873 33.8125H4.74912L7.67012 30.8929L12.0257 31.3414L12.7014 31.432L13.1944 30.9375L27.5249 16.6516L28.4679 17.5961L30.535 15.5289L20.4711 5.46643ZM21.4141 10.5437L25.4577 14.5859L11.6664 28.4219L8.25231 28.0179L7.98206 27.7477L7.57812 24.3336L21.4141 10.5437Z" fill="#195557"/>
</svg>
