<svg width="40" height="40" viewBox="0 0 40 40" fill="none" xmlns="http://www.w3.org/2000/svg">
<path d="M31.6667 18.3334H21.6667V8.33335C21.6667 7.89133 21.4911 7.4674 21.1785 7.15484C20.8659 6.84228 20.442 6.66669 20 6.66669C19.558 6.66669 19.134 6.84228 18.8215 7.15484C18.5089 7.4674 18.3333 7.89133 18.3333 8.33335V18.3334H8.33332C7.8913 18.3334 7.46737 18.5089 7.15481 18.8215C6.84225 19.1341 6.66666 19.558 6.66666 20C6.66666 20.442 6.84225 20.866 7.15481 21.1785C7.46737 21.4911 7.8913 21.6667 8.33332 21.6667H18.3333V31.6667C18.3333 32.1087 18.5089 32.5326 18.8215 32.8452C19.134 33.1578 19.558 33.3334 20 33.3334C20.442 33.3334 20.8659 33.1578 21.1785 32.8452C21.4911 32.5326 21.6667 32.1087 21.6667 31.6667V21.6667H31.6667C32.1087 21.6667 32.5326 21.4911 32.8452 21.1785C33.1577 20.866 33.3333 20.442 33.3333 20C33.3333 19.558 33.1577 19.1341 32.8452 18.8215C32.5326 18.5089 32.1087 18.3334 31.6667 18.3334Z" fill="#195557"/>
</svg>
