<svg width="40" height="40" viewBox="0 0 40 40" fill="none" xmlns="http://www.w3.org/2000/svg">
<path d="M25.465 17.1383C26.0617 16.77 26.46 16.27 26.6533 15.6317C26.1067 15.9276 25.52 16.1426 24.9117 16.27C24.6629 15.9964 24.3583 15.7793 24.0184 15.6335C23.6786 15.4877 23.3114 15.4166 22.9417 15.425C22.1683 15.425 21.5167 15.6967 20.9833 16.2233C20.7264 16.474 20.5232 16.7745 20.3862 17.1063C20.2493 17.4381 20.1814 17.7944 20.1867 18.1533C20.1867 18.3817 20.215 18.5867 20.2733 18.76C17.9933 18.68 16.1083 17.7367 14.6217 15.9167C14.3778 16.3311 14.2473 16.8025 14.2433 17.2833C14.2433 18.2467 14.65 19.01 15.46 19.5717C15.0344 19.5429 14.6197 19.4242 14.2433 19.2233C14.2433 19.9117 14.445 20.4867 14.8517 20.9933C15.2567 21.4933 15.78 21.8133 16.4167 21.9483C16.1797 22.0083 15.9361 22.038 15.6917 22.0367C15.5248 22.0462 15.3577 22.0253 15.1983 21.975C15.3717 22.5367 15.6917 22.99 16.155 23.3383C16.6167 23.6883 17.15 23.8717 17.75 23.8883C16.787 24.654 15.5885 25.0627 14.3583 25.045C14.045 25.045 13.825 25.0417 13.6917 25.0167C14.9411 25.8293 16.4029 26.2544 17.8933 26.2383C19.4783 26.2383 20.88 25.8367 22.0967 25.0333C23.3133 24.235 24.215 23.25 24.7917 22.0883C25.3627 20.9659 25.6602 19.7243 25.66 18.465V18.1167C26.22 17.695 26.675 17.22 27.0233 16.6933C26.5275 16.9144 26.0028 17.0643 25.465 17.1383ZM20 35C15.85 35 12.275 33.5167 9.37333 30.59C6.47167 27.6717 5 24.1083 5 20C5 15.8533 6.47333 12.2767 9.37833 9.375C12.2783 6.47333 15.8517 5 20 5C24.11 5 27.6733 6.47167 30.59 9.37333C33.5167 12.2767 35 15.8533 35 20C35 24.1083 33.5183 27.6733 30.5933 30.595C27.675 33.5167 24.1117 35 20 35ZM20 8.33333C16.7233 8.33333 14.02 9.445 11.7367 11.7333C9.445 14.02 8.33333 16.7233 8.33333 20C8.33333 23.24 9.44667 25.9367 11.7383 28.2417C14.025 30.5467 16.7267 31.6667 20 31.6667C23.2383 31.6667 25.9333 30.545 28.2367 28.2383C30.545 25.9317 31.6667 23.235 31.6667 20C31.6667 16.7283 30.5467 14.025 28.2417 11.7383C25.9367 9.44667 23.2417 8.33333 20 8.33333Z" fill="white"/>
</svg>
